<svg viewBox="0 0 1645 366" fill="none" xmlns="http://www.w3.org/2000/svg">
  <mask id="path-1-outside-1" maskUnits="userSpaceOnUse" x="1406.18" y="0.792847" width="236" height="339" fill="black">
  <rect fill="white" x="1406.18" y="0.792847" width="236" height="339"/>
  <path d="M1431.7 22.26L1432.52 27.59C1433.07 31.4167 1433.61 35.2433 1434.16 39.07C1434.43 42.35 1434.98 46.9967 1435.8 53.01C1436.62 58.2033 1437.3 64.3533 1437.85 71.46C1438.67 78.2933 1439.49 85.6733 1440.31 93.6C1441.4 101.8 1442.5 110.273 1443.59 119.02C1444.68 128.04 1445.78 137.197 1446.87 146.49C1448.24 155.783 1449.47 164.94 1450.56 173.96C1451.93 182.98 1453.84 196.1 1456.3 213.32C1459.03 230.54 1460.95 242.43 1462.04 248.99C1463.41 255.55 1464.64 261.973 1465.73 268.26C1466.55 273.18 1467.23 277.69 1467.78 281.79C1468.33 275.503 1469.01 268.67 1469.83 261.29C1470.65 251.723 1471.33 242.157 1471.88 232.59C1472.43 222.477 1473.52 207.307 1475.16 187.08C1476.8 166.853 1478.3 151.957 1479.67 142.39C1481.04 132.55 1482.4 122.847 1483.77 113.28C1485.41 103.713 1487.05 94.5567 1488.69 85.81C1490.6 77.0633 1493.06 66.13 1496.07 53.01C1499.35 39.89 1501.54 31.4167 1502.63 27.59C1504 23.7633 1505.09 20.4833 1505.91 17.75L1507.14 14.06C1507.96 11.6 1509.46 9.82332 1511.65 8.72999C1513.84 7.63665 1516.16 7.49999 1518.62 8.31999C1521.08 8.86665 1522.86 10.37 1523.95 12.83C1525.04 15.0167 1525.18 17.34 1524.36 19.8L1523.13 23.49C1522.58 25.95 1521.76 28.9567 1520.67 32.51C1519.58 36.0633 1517.39 44.4 1514.11 57.52C1511.1 70.3667 1508.78 80.89 1507.14 89.09C1505.5 97.8367 1503.86 106.993 1502.22 116.56C1500.58 125.853 1499.08 135.147 1497.71 144.44C1496.62 154.007 1495.25 168.767 1493.61 188.72C1491.7 208.673 1490.6 223.57 1490.33 233.41C1489.78 243.25 1489.1 253.09 1488.28 262.93C1487.46 272.497 1486.64 281.107 1485.82 288.76C1485 296.413 1484.04 303.11 1482.95 308.85C1482.13 315.137 1480.9 320.193 1479.26 324.02C1478.99 324.84 1477.62 326.207 1475.16 328.12C1472.97 330.033 1470.24 331.4 1466.96 332.22C1463.95 333.313 1461.36 331.537 1459.17 326.89C1457.8 324.157 1456.57 320.057 1455.48 314.59C1454.39 309.67 1453.43 305.16 1452.61 301.06C1451.52 296.96 1450.7 292.313 1450.15 287.12C1449.33 282.473 1448.51 277.143 1447.69 271.13C1446.6 265.117 1445.37 258.967 1444 252.68C1442.63 245.847 1440.72 233.683 1438.26 216.19C1435.53 198.697 1433.48 185.44 1432.11 176.42C1431.02 167.127 1429.92 157.97 1428.83 148.95C1427.46 139.383 1426.37 130.227 1425.55 121.48C1424.18 112.46 1423.09 103.987 1422.27 96.06C1421.18 87.86 1420.22 80.2067 1419.4 73.1C1418.85 65.9933 1418.17 59.8433 1417.35 54.65C1416.8 49.1833 1416.26 44.6733 1415.71 41.12C1415.44 37.84 1415.03 34.4233 1414.48 30.87L1413.25 25.54C1412.98 23.08 1413.52 20.8933 1414.89 18.98C1416.26 16.7933 1418.17 15.4267 1420.63 14.88C1423.36 14.3333 1425.69 14.88 1427.6 16.52C1429.79 17.8867 1431.15 19.8 1431.7 22.26Z"/>
  <path d="M1551.12 35.79C1549.48 33.8767 1548.8 31.69 1549.07 29.23C1549.62 26.4967 1550.85 24.31 1552.76 22.67L1557.27 19.39C1561.1 16.11 1565.33 13.7867 1569.98 12.42C1574.35 11.3267 1577.91 10.9167 1580.64 11.19C1583.92 11.4633 1588.16 12.9667 1593.35 15.7C1598.54 18.7067 1602.37 21.9867 1604.83 25.54C1606.74 28.5467 1608.38 31.8267 1609.75 35.38C1611.12 38.66 1612.62 43.99 1614.26 51.37C1615.9 58.4767 1616.86 63.9433 1617.13 67.77C1617.68 71.3233 1617.95 76.9267 1617.95 84.58C1617.95 92.2333 1617.54 98.11 1616.72 102.21C1616.17 106.31 1614.94 111.913 1613.03 119.02C1611.12 126.127 1609.61 131.32 1608.52 134.6C1607.43 137.607 1606.2 140.75 1604.83 144.03C1603.46 147.31 1601.55 151.683 1599.09 157.15C1596.63 162.617 1594.72 166.443 1593.35 168.63C1591.98 170.543 1590.07 173.003 1587.61 176.01C1585.7 178.743 1584.19 180.93 1583.1 182.57C1582.01 183.937 1580.91 185.44 1579.82 187.08C1581.19 189.54 1583.1 192.137 1585.56 194.87C1589.39 199.243 1591.98 202.523 1593.35 204.71C1594.99 206.623 1597.18 209.903 1599.91 214.55C1602.92 218.923 1605.1 222.477 1606.47 225.21C1607.84 227.67 1609.61 231.36 1611.8 236.28C1613.99 241.473 1616.04 246.53 1617.95 251.45C1619.86 256.917 1621.09 260.88 1621.64 263.34C1622.46 265.527 1623.42 269.08 1624.51 274C1625.88 278.647 1626.83 281.927 1627.38 283.84C1627.93 285.753 1628.75 288.897 1629.84 293.27C1631.21 297.917 1632.16 302.153 1632.71 305.98C1632.98 308.987 1633.26 311.447 1633.53 313.36L1634.35 316.64C1635.17 319.1 1634.9 321.423 1633.53 323.61C1632.16 325.797 1630.25 327.163 1627.79 327.71C1625.33 328.257 1623.01 327.847 1620.82 326.48C1618.63 325.387 1617.27 323.61 1616.72 321.15L1615.9 317.46C1615.08 314.727 1614.53 311.583 1614.26 308.03C1613.99 305.297 1613.3 302.153 1612.21 298.6C1610.84 294.227 1609.89 290.947 1609.34 288.76C1608.79 286.847 1607.97 283.43 1606.88 278.51C1605.79 274.41 1604.83 270.993 1604.01 268.26C1603.46 266.073 1602.37 262.657 1600.73 258.01C1598.82 253.09 1596.77 248.307 1594.58 243.66C1592.67 239.013 1591.16 235.733 1590.07 233.82C1588.98 231.633 1587.06 228.49 1584.33 224.39C1581.87 220.29 1579.96 217.42 1578.59 215.78C1577.22 213.867 1574.9 210.997 1571.62 207.17C1570.25 205.257 1568.89 203.617 1567.52 202.25C1567.52 203.617 1567.52 204.847 1567.52 205.94C1566.97 215.78 1566.56 226.577 1566.29 238.33C1566.02 250.083 1565.61 260.06 1565.06 268.26C1564.51 276.187 1564.24 281.79 1564.24 285.07C1563.97 288.623 1563.83 292.723 1563.83 297.37C1563.83 301.47 1563.97 305.023 1564.24 308.03L1565.06 313.36C1565.33 315.82 1564.65 318.007 1563.01 319.92C1561.64 322.107 1559.73 323.337 1557.27 323.61C1554.81 323.883 1552.49 323.2 1550.3 321.56C1548.39 320.193 1547.16 318.28 1546.61 315.82L1546.2 310.49C1545.65 306.663 1545.38 302.153 1545.38 296.96C1545.38 292.313 1545.52 288.213 1545.79 284.66C1545.79 281.107 1546.06 275.23 1546.61 267.03C1547.16 259.103 1547.57 249.4 1547.84 237.92C1548.11 226.167 1548.52 215.233 1549.07 205.12C1549.62 195.28 1549.89 183.117 1549.89 168.63C1550.16 154.143 1550.16 143.483 1549.89 136.65C1549.62 129.543 1549.75 118.883 1550.3 104.67C1551.12 90.4567 1551.94 78.02 1552.76 67.36C1553.85 56.7 1554.67 49.5933 1555.22 46.04C1555.49 43.58 1555.77 41.2567 1556.04 39.07C1554.13 38.5233 1552.49 37.43 1551.12 35.79ZM1568.34 171.5C1569.71 169.587 1571.35 167.4 1573.26 164.94C1575.17 162.207 1576.68 160.02 1577.77 158.38C1578.59 157.013 1580.09 154.007 1582.28 149.36C1584.74 144.44 1586.52 140.477 1587.61 137.47C1588.7 134.19 1589.8 131.183 1590.89 128.45C1591.98 125.717 1593.35 120.933 1594.99 114.1C1596.9 107.813 1598.13 102.893 1598.68 99.34C1599.23 96.3333 1599.5 91.4133 1599.5 84.58C1599.5 77.4733 1599.36 72.4167 1599.09 69.41C1598.82 66.4033 1597.86 61.62 1596.22 55.06C1594.85 48.7733 1593.62 44.5367 1592.53 42.35C1591.71 39.89 1590.62 37.7033 1589.25 35.79C1588.7 34.6966 1587.06 33.4666 1584.33 32.1C1582.14 30.7333 1580.5 29.9133 1579.41 29.64C1578.32 29.64 1576.95 29.7767 1575.31 30.05C1575.31 30.87 1575.31 31.5533 1575.31 32.1L1574.9 37.43C1574.35 40.9833 1573.81 44.5367 1573.26 48.09C1572.99 51.37 1572.3 58.34 1571.21 69C1570.12 79.3867 1569.3 91.55 1568.75 105.49C1568.2 119.157 1568.07 129.407 1568.34 136.24C1568.61 143.347 1568.61 154.28 1568.34 169.04C1568.34 169.86 1568.34 170.68 1568.34 171.5Z"/>
  </mask>
  <path d="M1431.7 22.26L1432.52 27.59C1433.07 31.4167 1433.61 35.2433 1434.16 39.07C1434.43 42.35 1434.98 46.9967 1435.8 53.01C1436.62 58.2033 1437.3 64.3533 1437.85 71.46C1438.67 78.2933 1439.49 85.6733 1440.31 93.6C1441.4 101.8 1442.5 110.273 1443.59 119.02C1444.68 128.04 1445.78 137.197 1446.87 146.49C1448.24 155.783 1449.47 164.94 1450.56 173.96C1451.93 182.98 1453.84 196.1 1456.3 213.32C1459.03 230.54 1460.95 242.43 1462.04 248.99C1463.41 255.55 1464.64 261.973 1465.73 268.26C1466.55 273.18 1467.23 277.69 1467.78 281.79C1468.33 275.503 1469.01 268.67 1469.83 261.29C1470.65 251.723 1471.33 242.157 1471.88 232.59C1472.43 222.477 1473.52 207.307 1475.16 187.08C1476.8 166.853 1478.3 151.957 1479.67 142.39C1481.04 132.55 1482.4 122.847 1483.77 113.28C1485.41 103.713 1487.05 94.5567 1488.69 85.81C1490.6 77.0633 1493.06 66.13 1496.07 53.01C1499.35 39.89 1501.54 31.4167 1502.63 27.59C1504 23.7633 1505.09 20.4833 1505.91 17.75L1507.14 14.06C1507.96 11.6 1509.46 9.82332 1511.65 8.72999C1513.84 7.63665 1516.16 7.49999 1518.62 8.31999C1521.08 8.86665 1522.86 10.37 1523.95 12.83C1525.04 15.0167 1525.18 17.34 1524.36 19.8L1523.13 23.49C1522.58 25.95 1521.76 28.9567 1520.67 32.51C1519.58 36.0633 1517.39 44.4 1514.11 57.52C1511.1 70.3667 1508.78 80.89 1507.14 89.09C1505.5 97.8367 1503.86 106.993 1502.22 116.56C1500.58 125.853 1499.08 135.147 1497.71 144.44C1496.62 154.007 1495.25 168.767 1493.61 188.72C1491.7 208.673 1490.6 223.57 1490.33 233.41C1489.78 243.25 1489.1 253.09 1488.28 262.93C1487.46 272.497 1486.64 281.107 1485.82 288.76C1485 296.413 1484.04 303.11 1482.95 308.85C1482.13 315.137 1480.9 320.193 1479.26 324.02C1478.99 324.84 1477.62 326.207 1475.16 328.12C1472.97 330.033 1470.24 331.4 1466.96 332.22C1463.95 333.313 1461.36 331.537 1459.17 326.89C1457.8 324.157 1456.57 320.057 1455.48 314.59C1454.39 309.67 1453.43 305.16 1452.61 301.06C1451.52 296.96 1450.7 292.313 1450.15 287.12C1449.33 282.473 1448.51 277.143 1447.69 271.13C1446.6 265.117 1445.37 258.967 1444 252.68C1442.63 245.847 1440.72 233.683 1438.26 216.19C1435.53 198.697 1433.48 185.44 1432.11 176.42C1431.02 167.127 1429.92 157.97 1428.83 148.95C1427.46 139.383 1426.37 130.227 1425.55 121.48C1424.18 112.46 1423.09 103.987 1422.27 96.06C1421.18 87.86 1420.22 80.2067 1419.4 73.1C1418.85 65.9933 1418.17 59.8433 1417.35 54.65C1416.8 49.1833 1416.26 44.6733 1415.71 41.12C1415.44 37.84 1415.03 34.4233 1414.48 30.87L1413.25 25.54C1412.98 23.08 1413.52 20.8933 1414.89 18.98C1416.26 16.7933 1418.17 15.4267 1420.63 14.88C1423.36 14.3333 1425.69 14.88 1427.6 16.52C1429.79 17.8867 1431.15 19.8 1431.7 22.26Z" fill="#DD2200"/>
  <path d="M1551.12 35.79C1549.48 33.8767 1548.8 31.69 1549.07 29.23C1549.62 26.4967 1550.85 24.31 1552.76 22.67L1557.27 19.39C1561.1 16.11 1565.33 13.7867 1569.98 12.42C1574.35 11.3267 1577.91 10.9167 1580.64 11.19C1583.92 11.4633 1588.16 12.9667 1593.35 15.7C1598.54 18.7067 1602.37 21.9867 1604.83 25.54C1606.74 28.5467 1608.38 31.8267 1609.75 35.38C1611.12 38.66 1612.62 43.99 1614.26 51.37C1615.9 58.4767 1616.86 63.9433 1617.13 67.77C1617.68 71.3233 1617.95 76.9267 1617.95 84.58C1617.95 92.2333 1617.54 98.11 1616.72 102.21C1616.17 106.31 1614.94 111.913 1613.03 119.02C1611.12 126.127 1609.61 131.32 1608.52 134.6C1607.43 137.607 1606.2 140.75 1604.83 144.03C1603.46 147.31 1601.55 151.683 1599.09 157.15C1596.63 162.617 1594.72 166.443 1593.35 168.63C1591.98 170.543 1590.07 173.003 1587.61 176.01C1585.7 178.743 1584.19 180.93 1583.1 182.57C1582.01 183.937 1580.91 185.44 1579.82 187.08C1581.19 189.54 1583.1 192.137 1585.56 194.87C1589.39 199.243 1591.98 202.523 1593.35 204.71C1594.99 206.623 1597.18 209.903 1599.91 214.55C1602.92 218.923 1605.1 222.477 1606.47 225.21C1607.84 227.67 1609.61 231.36 1611.8 236.28C1613.99 241.473 1616.04 246.53 1617.95 251.45C1619.86 256.917 1621.09 260.88 1621.64 263.34C1622.46 265.527 1623.42 269.08 1624.51 274C1625.88 278.647 1626.83 281.927 1627.38 283.84C1627.93 285.753 1628.75 288.897 1629.84 293.27C1631.21 297.917 1632.16 302.153 1632.71 305.98C1632.98 308.987 1633.26 311.447 1633.53 313.36L1634.35 316.64C1635.17 319.1 1634.9 321.423 1633.53 323.61C1632.16 325.797 1630.25 327.163 1627.79 327.71C1625.33 328.257 1623.01 327.847 1620.82 326.48C1618.63 325.387 1617.27 323.61 1616.72 321.15L1615.9 317.46C1615.08 314.727 1614.53 311.583 1614.26 308.03C1613.99 305.297 1613.3 302.153 1612.21 298.6C1610.84 294.227 1609.89 290.947 1609.34 288.76C1608.79 286.847 1607.97 283.43 1606.88 278.51C1605.79 274.41 1604.83 270.993 1604.01 268.26C1603.46 266.073 1602.37 262.657 1600.73 258.01C1598.82 253.09 1596.77 248.307 1594.58 243.66C1592.67 239.013 1591.16 235.733 1590.07 233.82C1588.98 231.633 1587.06 228.49 1584.33 224.39C1581.87 220.29 1579.96 217.42 1578.59 215.78C1577.22 213.867 1574.9 210.997 1571.62 207.17C1570.25 205.257 1568.89 203.617 1567.52 202.25C1567.52 203.617 1567.52 204.847 1567.52 205.94C1566.97 215.78 1566.56 226.577 1566.29 238.33C1566.02 250.083 1565.61 260.06 1565.06 268.26C1564.51 276.187 1564.24 281.79 1564.24 285.07C1563.97 288.623 1563.83 292.723 1563.83 297.37C1563.83 301.47 1563.97 305.023 1564.24 308.03L1565.06 313.36C1565.33 315.82 1564.65 318.007 1563.01 319.92C1561.64 322.107 1559.73 323.337 1557.27 323.61C1554.81 323.883 1552.49 323.2 1550.3 321.56C1548.39 320.193 1547.16 318.28 1546.61 315.82L1546.2 310.49C1545.65 306.663 1545.38 302.153 1545.38 296.96C1545.38 292.313 1545.52 288.213 1545.79 284.66C1545.79 281.107 1546.06 275.23 1546.61 267.03C1547.16 259.103 1547.57 249.4 1547.84 237.92C1548.11 226.167 1548.52 215.233 1549.07 205.12C1549.62 195.28 1549.89 183.117 1549.89 168.63C1550.16 154.143 1550.16 143.483 1549.89 136.65C1549.62 129.543 1549.75 118.883 1550.3 104.67C1551.12 90.4567 1551.94 78.02 1552.76 67.36C1553.85 56.7 1554.67 49.5933 1555.22 46.04C1555.49 43.58 1555.77 41.2567 1556.04 39.07C1554.13 38.5233 1552.49 37.43 1551.12 35.79ZM1568.34 171.5C1569.71 169.587 1571.35 167.4 1573.26 164.94C1575.17 162.207 1576.68 160.02 1577.77 158.38C1578.59 157.013 1580.09 154.007 1582.28 149.36C1584.74 144.44 1586.52 140.477 1587.61 137.47C1588.7 134.19 1589.8 131.183 1590.89 128.45C1591.98 125.717 1593.35 120.933 1594.99 114.1C1596.9 107.813 1598.13 102.893 1598.68 99.34C1599.23 96.3333 1599.5 91.4133 1599.5 84.58C1599.5 77.4733 1599.36 72.4167 1599.09 69.41C1598.82 66.4033 1597.86 61.62 1596.22 55.06C1594.85 48.7733 1593.62 44.5367 1592.53 42.35C1591.71 39.89 1590.62 37.7033 1589.25 35.79C1588.7 34.6966 1587.06 33.4666 1584.33 32.1C1582.14 30.7333 1580.5 29.9133 1579.41 29.64C1578.32 29.64 1576.95 29.7767 1575.31 30.05C1575.31 30.87 1575.31 31.5533 1575.31 32.1L1574.9 37.43C1574.35 40.9833 1573.81 44.5367 1573.26 48.09C1572.99 51.37 1572.3 58.34 1571.21 69C1570.12 79.3867 1569.3 91.55 1568.75 105.49C1568.2 119.157 1568.07 129.407 1568.34 136.24C1568.61 143.347 1568.61 154.28 1568.34 169.04C1568.34 169.86 1568.34 170.68 1568.34 171.5Z" fill="#DD2200"/>
  <path d="M1431.7 22.26L1432.52 27.59C1433.07 31.4167 1433.61 35.2433 1434.16 39.07C1434.43 42.35 1434.98 46.9967 1435.8 53.01C1436.62 58.2033 1437.3 64.3533 1437.85 71.46C1438.67 78.2933 1439.49 85.6733 1440.31 93.6C1441.4 101.8 1442.5 110.273 1443.59 119.02C1444.68 128.04 1445.78 137.197 1446.87 146.49C1448.24 155.783 1449.47 164.94 1450.56 173.96C1451.93 182.98 1453.84 196.1 1456.3 213.32C1459.03 230.54 1460.95 242.43 1462.04 248.99C1463.41 255.55 1464.64 261.973 1465.73 268.26C1466.55 273.18 1467.23 277.69 1467.78 281.79C1468.33 275.503 1469.01 268.67 1469.83 261.29C1470.65 251.723 1471.33 242.157 1471.88 232.59C1472.43 222.477 1473.52 207.307 1475.16 187.08C1476.8 166.853 1478.3 151.957 1479.67 142.39C1481.04 132.55 1482.4 122.847 1483.77 113.28C1485.41 103.713 1487.05 94.5567 1488.69 85.81C1490.6 77.0633 1493.06 66.13 1496.07 53.01C1499.35 39.89 1501.54 31.4167 1502.63 27.59C1504 23.7633 1505.09 20.4833 1505.91 17.75L1507.14 14.06C1507.96 11.6 1509.46 9.82332 1511.65 8.72999C1513.84 7.63665 1516.16 7.49999 1518.62 8.31999C1521.08 8.86665 1522.86 10.37 1523.95 12.83C1525.04 15.0167 1525.18 17.34 1524.36 19.8L1523.13 23.49C1522.58 25.95 1521.76 28.9567 1520.67 32.51C1519.58 36.0633 1517.39 44.4 1514.11 57.52C1511.1 70.3667 1508.78 80.89 1507.14 89.09C1505.5 97.8367 1503.86 106.993 1502.22 116.56C1500.58 125.853 1499.08 135.147 1497.71 144.44C1496.62 154.007 1495.25 168.767 1493.61 188.72C1491.7 208.673 1490.6 223.57 1490.33 233.41C1489.78 243.25 1489.1 253.09 1488.28 262.93C1487.46 272.497 1486.64 281.107 1485.82 288.76C1485 296.413 1484.04 303.11 1482.95 308.85C1482.13 315.137 1480.9 320.193 1479.26 324.02C1478.99 324.84 1477.62 326.207 1475.16 328.12C1472.97 330.033 1470.24 331.4 1466.96 332.22C1463.95 333.313 1461.36 331.537 1459.17 326.89C1457.8 324.157 1456.57 320.057 1455.48 314.59C1454.39 309.67 1453.43 305.16 1452.61 301.06C1451.52 296.96 1450.7 292.313 1450.15 287.12C1449.33 282.473 1448.51 277.143 1447.69 271.13C1446.6 265.117 1445.37 258.967 1444 252.68C1442.63 245.847 1440.72 233.683 1438.26 216.19C1435.53 198.697 1433.48 185.44 1432.11 176.42C1431.02 167.127 1429.92 157.97 1428.83 148.95C1427.46 139.383 1426.37 130.227 1425.55 121.48C1424.18 112.46 1423.09 103.987 1422.27 96.06C1421.18 87.86 1420.22 80.2067 1419.4 73.1C1418.85 65.9933 1418.17 59.8433 1417.35 54.65C1416.8 49.1833 1416.26 44.6733 1415.71 41.12C1415.44 37.84 1415.03 34.4233 1414.48 30.87L1413.25 25.54C1412.98 23.08 1413.52 20.8933 1414.89 18.98C1416.26 16.7933 1418.17 15.4267 1420.63 14.88C1423.36 14.3333 1425.69 14.88 1427.6 16.52C1429.79 17.8867 1431.15 19.8 1431.7 22.26Z" stroke="black" stroke-width="14" mask="url(#path-1-outside-1)"/>
  <path d="M1551.12 35.79C1549.48 33.8767 1548.8 31.69 1549.07 29.23C1549.62 26.4967 1550.85 24.31 1552.76 22.67L1557.27 19.39C1561.1 16.11 1565.33 13.7867 1569.98 12.42C1574.35 11.3267 1577.91 10.9167 1580.64 11.19C1583.92 11.4633 1588.16 12.9667 1593.35 15.7C1598.54 18.7067 1602.37 21.9867 1604.83 25.54C1606.74 28.5467 1608.38 31.8267 1609.75 35.38C1611.12 38.66 1612.62 43.99 1614.26 51.37C1615.9 58.4767 1616.86 63.9433 1617.13 67.77C1617.68 71.3233 1617.95 76.9267 1617.95 84.58C1617.95 92.2333 1617.54 98.11 1616.72 102.21C1616.17 106.31 1614.94 111.913 1613.03 119.02C1611.12 126.127 1609.61 131.32 1608.52 134.6C1607.43 137.607 1606.2 140.75 1604.83 144.03C1603.46 147.31 1601.55 151.683 1599.09 157.15C1596.63 162.617 1594.72 166.443 1593.35 168.63C1591.98 170.543 1590.07 173.003 1587.61 176.01C1585.7 178.743 1584.19 180.93 1583.1 182.57C1582.01 183.937 1580.91 185.44 1579.82 187.08C1581.19 189.54 1583.1 192.137 1585.56 194.87C1589.39 199.243 1591.98 202.523 1593.35 204.71C1594.99 206.623 1597.18 209.903 1599.91 214.55C1602.92 218.923 1605.1 222.477 1606.47 225.21C1607.84 227.67 1609.61 231.36 1611.8 236.28C1613.99 241.473 1616.04 246.53 1617.95 251.45C1619.86 256.917 1621.09 260.88 1621.64 263.34C1622.46 265.527 1623.42 269.08 1624.51 274C1625.88 278.647 1626.83 281.927 1627.38 283.84C1627.93 285.753 1628.75 288.897 1629.84 293.27C1631.21 297.917 1632.16 302.153 1632.71 305.98C1632.98 308.987 1633.26 311.447 1633.53 313.36L1634.35 316.64C1635.17 319.1 1634.9 321.423 1633.53 323.61C1632.16 325.797 1630.25 327.163 1627.79 327.71C1625.33 328.257 1623.01 327.847 1620.82 326.48C1618.63 325.387 1617.27 323.61 1616.72 321.15L1615.9 317.46C1615.08 314.727 1614.53 311.583 1614.26 308.03C1613.99 305.297 1613.3 302.153 1612.21 298.6C1610.84 294.227 1609.89 290.947 1609.34 288.76C1608.79 286.847 1607.97 283.43 1606.88 278.51C1605.79 274.41 1604.83 270.993 1604.01 268.26C1603.46 266.073 1602.37 262.657 1600.73 258.01C1598.82 253.09 1596.77 248.307 1594.58 243.66C1592.67 239.013 1591.16 235.733 1590.07 233.82C1588.98 231.633 1587.06 228.49 1584.33 224.39C1581.87 220.29 1579.96 217.42 1578.59 215.78C1577.22 213.867 1574.9 210.997 1571.62 207.17C1570.25 205.257 1568.89 203.617 1567.52 202.25C1567.52 203.617 1567.52 204.847 1567.52 205.94C1566.97 215.78 1566.56 226.577 1566.29 238.33C1566.02 250.083 1565.61 260.06 1565.06 268.26C1564.51 276.187 1564.24 281.79 1564.24 285.07C1563.97 288.623 1563.83 292.723 1563.83 297.37C1563.83 301.47 1563.97 305.023 1564.24 308.03L1565.06 313.36C1565.33 315.82 1564.65 318.007 1563.01 319.92C1561.64 322.107 1559.73 323.337 1557.27 323.61C1554.81 323.883 1552.49 323.2 1550.3 321.56C1548.39 320.193 1547.16 318.28 1546.61 315.82L1546.2 310.49C1545.65 306.663 1545.38 302.153 1545.38 296.96C1545.38 292.313 1545.52 288.213 1545.79 284.66C1545.79 281.107 1546.06 275.23 1546.61 267.03C1547.16 259.103 1547.57 249.4 1547.84 237.92C1548.11 226.167 1548.52 215.233 1549.07 205.12C1549.62 195.28 1549.89 183.117 1549.89 168.63C1550.16 154.143 1550.16 143.483 1549.89 136.65C1549.62 129.543 1549.75 118.883 1550.3 104.67C1551.12 90.4567 1551.94 78.02 1552.76 67.36C1553.85 56.7 1554.67 49.5933 1555.22 46.04C1555.49 43.58 1555.77 41.2567 1556.04 39.07C1554.13 38.5233 1552.49 37.43 1551.12 35.79ZM1568.34 171.5C1569.71 169.587 1571.35 167.4 1573.26 164.94C1575.17 162.207 1576.68 160.02 1577.77 158.38C1578.59 157.013 1580.09 154.007 1582.28 149.36C1584.74 144.44 1586.52 140.477 1587.61 137.47C1588.7 134.19 1589.8 131.183 1590.89 128.45C1591.98 125.717 1593.35 120.933 1594.99 114.1C1596.9 107.813 1598.13 102.893 1598.68 99.34C1599.23 96.3333 1599.5 91.4133 1599.5 84.58C1599.5 77.4733 1599.36 72.4167 1599.09 69.41C1598.82 66.4033 1597.86 61.62 1596.22 55.06C1594.85 48.7733 1593.62 44.5367 1592.53 42.35C1591.71 39.89 1590.62 37.7033 1589.25 35.79C1588.7 34.6966 1587.06 33.4666 1584.33 32.1C1582.14 30.7333 1580.5 29.9133 1579.41 29.64C1578.32 29.64 1576.95 29.7767 1575.31 30.05C1575.31 30.87 1575.31 31.5533 1575.31 32.1L1574.9 37.43C1574.35 40.9833 1573.81 44.5367 1573.26 48.09C1572.99 51.37 1572.3 58.34 1571.21 69C1570.12 79.3867 1569.3 91.55 1568.75 105.49C1568.2 119.157 1568.07 129.407 1568.34 136.24C1568.61 143.347 1568.61 154.28 1568.34 169.04C1568.34 169.86 1568.34 170.68 1568.34 171.5Z" stroke="black" stroke-width="14" mask="url(#path-1-outside-1)"/>
  <path d="M22.2519 339.205C11.5599 338.719 4.98389 330.027 2.78489 324.967C2.43389 324.161 2.24389 323.296 2.22389 322.418L1.80488 303.964C-1.85412 257.339 1.14489 195.72 1.37089 191.238C0.571892 150.998 13.3229 99.904 13.8679 97.744C13.8839 97.68 13.9009 97.616 13.9189 97.553C34.7269 24.113 61.2509 9.19299 66.5749 6.87799C73.1669 3.09099 81.1109 1.172 90.1969 1.172C109.146 1.172 127.645 9.51301 131.311 11.26C165.229 20.858 179.781 56.367 182.382 63.47C206.318 65.37 216.737 93.621 218.244 98.108C229.972 122.246 235.425 185.94 235.653 188.657C235.669 188.845 235.677 189.034 235.677 189.223C235.677 220.155 216.951 234.425 207.978 239.486L212.347 310.193L214.016 323.541C214.064 323.927 214.079 324.316 214.06 324.704C213.608 334.198 207.106 337.567 201.676 337.567C200.141 337.567 198.793 337.325 197.833 337.086L140.638 336.686C137.824 338.634 135.165 339.102 133.261 339.102C129.285 339.102 125.912 337.081 123.679 334.834C115.692 331.332 113.66 321.344 115.307 312.088L112.43 266.456C111.702 263.503 110.281 262.466 109.793 262.187C108.733 261.958 108.219 261.568 107.489 260.857C107.006 260.685 105.39 260.24 101.677 260.24C97.6739 260.24 93.8589 260.758 93.8209 260.763C93.7939 260.767 93.7609 260.771 93.7339 260.775C89.7519 261.272 88.3179 263.309 87.8579 264.266C88.5459 280.385 87.1589 299.577 86.9619 302.185V308.403C87.5329 314.918 87.1939 318.645 86.5379 320.946V326.076C86.5379 326.249 86.5319 326.423 86.5179 326.596C85.9239 334.321 79.0439 338.363 72.5559 338.363L26.4839 337.959C25.3369 338.773 23.9649 339.21 22.5599 339.21C22.4569 339.213 22.3549 339.21 22.2519 339.205ZM146.852 304.685C146.775 304.991 146.722 305.373 146.701 305.722L181.359 305.357C179.754 264.17 176.984 199.538 176.085 194.019C176.036 193.79 175.999 193.558 175.975 193.324C175.891 192.526 167.475 113.183 159.299 87.018C159.211 86.736 159.141 86.449 159.09 86.157C158.835 84.75 152.321 51.016 115.423 39.345C115.201 39.275 114.983 39.193 114.77 39.101C114.638 39.043 100.781 33.125 88.6649 33.125C82.4529 33.125 78.1569 34.681 75.8949 37.75C75.7569 37.937 75.6099 38.117 75.4539 38.289C75.3169 38.441 68.3139 46.315 60.4689 60.393C64.4409 59.082 69.2719 58.054 75.0509 57.274C85.2739 55.896 96.4719 55.606 104.065 55.606C108.967 55.606 112.419 55.725 113.301 55.758C113.718 55.751 114.129 55.747 114.535 55.747C134.788 55.747 142.474 64.693 144.532 67.8C154.986 80.141 157.341 116.395 157.71 123.63C157.716 123.745 157.719 123.86 157.719 123.975C157.719 133.686 155.408 141.383 150.852 146.851C148.092 150.163 145.181 151.769 143.493 152.484C133.258 159.127 115.58 160.541 102.394 160.541C102.393 160.541 102.393 160.541 102.392 160.541C99.1669 160.541 96.8849 160.448 96.1609 160.414C95.6329 160.42 95.1109 160.423 94.5939 160.423C66.2349 160.423 53.3819 151.194 49.9169 148.154C43.7789 144.645 40.1439 139.467 38.0299 134.082C35.3659 150.948 31.1759 181.355 30.6109 208.797L30.1879 301.956C30.1869 302.291 30.1599 302.626 30.1089 302.957C30.0109 303.662 30.0009 304.566 30.0639 305.302C30.0639 305.302 54.8419 304.889 54.9329 304.889C55.0379 304.889 55.1389 304.89 55.2359 304.893L55.5799 290.785C54.5769 287.808 53.0449 281.368 55.6479 274.887C55.1129 271.99 54.7729 267.382 56.3929 262.372C56.2479 257.309 57.0029 242.517 69.8869 234.694C69.9609 234.649 70.0359 234.605 70.1119 234.563C70.7539 234.207 86.0559 225.838 106.955 225.838C110.193 225.838 113.435 226.042 116.606 226.445C117.251 226.375 118.092 226.315 119.084 226.315C136.126 226.315 141.142 241.447 142.273 246.085C142.346 246.384 142.399 246.688 142.43 246.994L143.666 258.941C144.083 261.005 145.877 270.642 146.274 285.144L147.118 302.442C147.158 303.263 147.103 303.911 146.852 304.685ZM199.882 140.796C201.777 157.225 203.851 181.008 205.147 196.613C205.407 195.764 205.65 194.911 205.869 194.069C205.714 186.704 203.635 167.213 202.815 160.056C202.1 153.083 201.081 146.658 199.882 140.796ZM77.5549 129.094C78.0639 129.258 81.6899 130.331 89.0799 130.331C89.4249 130.331 89.7689 130.357 90.1109 130.41L94.5879 131.099L98.9029 130.435C100.54 130.104 111.998 127.858 121.685 127.79C124.5 127.394 127.647 126.163 128.795 125.084C127.794 111.04 125.427 94.723 123.277 91.456C123.045 91.187 122.952 91.087 122.773 90.774C122.225 90.044 117.679 84.522 105.664 84.522C105.057 84.522 104.434 84.536 103.793 84.565C103.757 84.567 103.721 84.568 103.685 84.569C93.4669 84.87 80.9479 85.859 77.2699 86.906C76.1419 87.86 74.7399 88.401 73.2009 88.401C73.1029 88.401 73.0029 88.399 72.9029 88.395C71.9079 88.581 70.0699 90.002 68.9489 94.323C68.7929 94.924 68.5549 95.501 68.2419 96.037C68.1579 96.184 58.8719 112.67 66.5389 125.368C67.1789 125.935 69.8349 127.955 75.9049 128.683C76.5569 128.763 76.9679 128.84 77.5549 129.094Z" fill="black"/>
  <path d="M113.23 62.54C113.23 62.54 63.2339 60.421 53.9129 71.861C53.9129 71.861 42.8969 93.469 42.4729 112.112C42.4729 112.112 38.6599 134.568 53.9129 142.618C53.9129 142.618 64.9289 154.058 96.2819 153.634C96.2819 153.634 127.636 155.329 140.346 146.431C140.346 146.431 150.938 143.465 150.938 123.975C150.938 123.975 148.82 82.453 139.075 71.861C139.075 71.862 133.991 62.116 113.23 62.54ZM122.128 134.568C112.383 134.568 100.096 137.11 100.096 137.11L94.5879 137.957L89.0799 137.11C79.3349 137.11 75.0979 135.415 75.0979 135.415C64.5059 134.144 61.1159 129.483 61.1159 129.483C50.5239 112.959 62.3869 92.622 62.3869 92.622C65.3529 81.182 72.9789 81.606 72.9789 81.606C74.6739 78.64 103.485 77.793 103.485 77.793C122.128 76.946 128.483 87.114 128.483 87.114C133.567 93.046 135.686 126.518 135.686 126.518C133.568 133.297 122.128 134.568 122.128 134.568ZM228.899 189.225C228.899 189.225 223.391 123.553 211.951 100.673C211.951 100.673 202.206 69.32 178.903 70.167L176.361 66.777C176.361 66.777 163.226 26.95 128.907 17.629C128.907 17.629 92.4689 -0.589966 69.5899 12.968C69.5899 12.968 42.0499 23.137 20.4419 99.402C20.4419 99.402 7.3079 151.516 8.1549 191.344C8.1549 191.344 4.76588 255.322 8.57888 303.622L9.00289 322.265C9.00289 322.265 13.2399 332.01 22.5609 332.434L24.2559 331.163L72.5569 331.587C72.5569 331.587 79.3359 331.587 79.7599 326.079V319.724C79.7599 319.724 81.0309 318.029 80.1829 308.708V301.929C80.1829 301.929 81.8779 280.321 81.0309 263.372C81.0309 263.372 82.7259 255.322 92.8939 254.051C92.8939 254.051 108.147 251.932 111.96 255.746C111.96 255.746 117.468 257.44 119.163 265.491L122.129 312.521C122.129 312.521 119.163 326.927 127.637 329.045C127.637 329.045 132.297 335.824 138.229 329.893L198.817 330.316C198.817 330.316 206.867 333.282 207.291 324.384L205.596 310.826L200.935 235.409C200.935 235.407 228.899 224.815 228.899 189.225ZM188.224 310.825L185.258 312.096L145.007 312.52C137.804 311.249 140.347 302.775 140.347 302.775L139.499 285.403C139.075 269.726 136.957 259.982 136.957 259.982L135.686 247.695C131.449 230.323 116.62 233.289 116.62 233.289C92.4689 229.899 73.4029 240.492 73.4029 240.492C61.5389 247.695 63.2349 263.371 63.2349 263.371C60.6929 269.726 62.8109 275.658 62.8109 275.658C58.9979 282.013 62.3869 289.64 62.3869 289.64L61.9629 307.011C61.5389 314.214 54.7599 311.672 54.7599 311.672L29.3389 312.096C21.7119 312.943 23.4069 301.928 23.4069 301.928L23.8309 208.715C24.6779 167.193 33.5759 119.739 33.5759 119.739C40.7789 66.353 70.4369 33.729 70.4369 33.729C82.2999 17.628 117.467 32.881 117.467 32.881C158.989 46.016 165.768 84.995 165.768 84.995C174.242 112.112 182.716 192.613 182.716 192.613C183.987 198.121 188.224 307.434 188.224 307.434V310.825ZM199.664 212.952C199.664 212.952 194.297 143.748 191.19 127.366C191.19 127.366 184.411 93.188 182.434 90.928C182.434 90.928 184.694 86.126 188.931 92.34C188.931 92.34 205.031 115.219 209.551 159.283C209.551 159.283 212.658 186.4 212.658 194.873C212.658 194.874 206.725 219.166 199.664 212.952Z" fill="white"/>
  <path d="M433.14 340.284C431.601 340.284 430.364 340.076 429.723 339.941C419.618 338.258 416.238 331.618 415.796 327.744L409.88 285.063C409.868 284.978 409.858 284.892 409.849 284.806L402.231 208.625C402.231 208.625 391.638 123.877 391.633 123.832L389.879 107.049L380.089 170.262L367.813 265.507L359.761 326.957C359.68 327.573 359.515 328.175 359.27 328.747C355.788 336.872 351.384 338.733 349.069 339.119C348.701 339.181 348.328 339.212 347.955 339.212C347.794 339.212 347.633 339.206 347.473 339.194L341.76 338.786C332.838 338.676 328.4 333.02 327.179 329.665C327.099 329.444 327.031 329.22 326.973 328.992L322.736 312.045C322.687 311.848 322.646 311.65 322.615 311.45L304.836 198.006L287.644 107.182L278.394 169.042L257.639 300.366L254.684 322.322C254.667 322.443 254.647 322.565 254.624 322.686L252.929 331.583C252.714 332.713 252.214 333.77 251.478 334.655C249.418 337.126 245.474 340.072 238.383 340.072C238.383 340.072 238.384 340.072 238.383 340.072C234.225 340.072 230.702 339.037 230.315 338.919C230.078 338.847 229.846 338.762 229.618 338.664C222.227 335.497 220.352 327.44 222.247 320.832L225.139 298.105C225.149 298.023 225.161 297.941 225.175 297.86L248.471 156.391L268.334 24.952C268.934 16.383 273.132 9.62899 273.615 8.87799C274.352 7.73199 275.416 6.83498 276.67 6.30298C279.753 4.99498 282.665 4.33203 285.326 4.33203C293.882 4.33203 298.834 10.883 299.873 18.127C304.068 23.23 306.846 31.256 308.335 42.532C309.298 49.824 309.399 56.276 309.403 58.465L331.29 163.693C331.31 163.791 331.329 163.889 331.344 163.988L341.611 227.3C341.611 227.3 356.933 122.087 356.939 122.054L373.02 21.762C375.277 3.60602 386.999 2.08704 389.156 1.96204V1.95898C389.432 1.94598 389.705 1.93903 389.977 1.93903C400.289 1.93903 406.962 11.205 409.279 16.68C409.525 17.262 409.689 17.875 409.765 18.502L411.883 35.874L425.011 137.512C425.011 137.512 441.979 279.619 441.984 279.673L446.645 328.398C446.739 329.388 446.615 330.387 446.281 331.323C444.279 336.934 439.366 340.284 433.14 340.284Z" fill="black"/>
  <path d="M228.899 322.264C228.899 322.264 226.357 329.891 232.289 332.433C232.289 332.433 242.034 335.399 246.27 330.314L247.965 321.417L250.931 299.385L271.692 168.04L285.25 77.37C285.25 77.37 287.369 71.438 289.063 78.2169L311.519 196.851L329.314 310.401L333.551 327.349C333.551 327.349 335.246 332.01 342.025 332.01L347.957 332.434C347.957 332.434 350.499 332.01 353.041 326.079L361.091 264.643L373.378 169.312L388.207 73.556C388.207 73.556 389.902 59.15 392.444 66.353L398.376 123.128L408.968 207.867L416.594 284.132L422.526 326.925C422.526 326.925 422.95 332.009 431 333.28C431 333.28 437.779 334.975 439.897 329.043L435.236 280.318L418.288 138.38L405.154 36.693L403.035 19.321C403.035 19.321 398.374 8.30497 389.477 8.72897C389.477 8.72897 381.427 8.72897 379.732 22.711L363.631 123.127L344.567 254.05L343.719 265.489C343.719 265.489 342.024 279.895 339.906 259.134L324.653 165.073L302.621 59.15C302.621 59.15 303.045 29.915 293.3 21.018C293.3 21.018 293.3 6.61298 279.318 12.544C279.318 12.544 275.505 18.4759 275.081 25.6779L255.167 157.447L231.864 298.961L228.899 322.264Z" fill="white"/>
  <path d="M507.51 339.662C506.807 339.662 506.322 339.62 506.094 339.595C477.824 336.539 465.676 311.409 463.017 297.904C456.738 282.087 452.226 256.571 449.609 222.045C447.802 198.212 447.555 177.943 447.527 174.839C445.499 157.46 450.66 82.881 450.926 79.062C453.59 32.214 475.188 9.22803 476.106 8.27203C476.32 8.05003 476.548 7.842 476.79 7.651C482.601 3.056 489.251 0.72699 496.556 0.72699C511.766 0.72699 524.543 11.127 525.575 11.989C535.366 20.034 543.954 35.249 551.101 57.212C555.962 72.151 558.441 85.003 558.802 86.943C564.829 111.184 562.037 189.124 561.915 192.44C561.914 192.484 561.912 192.528 561.909 192.572C558.936 245.235 543.677 300.567 543.029 302.896C543.009 302.965 542.99 303.033 542.968 303.102C532.37 337.024 513.151 339.662 507.51 339.662C507.51 339.662 507.511 339.662 507.51 339.662ZM487.691 263.147C493.641 298.199 502.139 302.451 503.252 302.856C503.345 302.841 503.438 302.829 503.531 302.818C510.837 301.983 515.913 286.24 517.107 279.187C517.2 278.636 517.361 278.099 517.586 277.588C520.664 270.593 525.893 228.204 528.476 203.046C532.417 146.773 528.888 109.313 526.47 97.364C526.387 96.956 526.341 96.534 526.334 96.119C525.945 71.602 507.157 40.082 506.967 39.766C506.787 39.467 506.629 39.151 506.497 38.828C505.757 37.012 504.516 35.33 500.479 35.33C498.176 35.33 496.248 35.931 496.229 35.937C496.033 36.002 495.863 36.049 495.674 36.092C492.568 37.878 487.893 51.534 486.011 64.369C486.002 64.433 485.991 64.498 485.98 64.563C485.939 64.828 484.641 73.559 480.986 132.864C477.303 192.57 487.344 260.823 487.691 263.147Z" fill="black"/>
  <path d="M552.177 88.385C552.177 88.385 542.432 34.576 521.247 17.204C521.247 17.204 499.215 -1.43804 480.996 12.967C480.996 12.967 460.235 34.575 457.693 79.487C457.693 79.487 452.185 158.294 454.304 174.394C454.304 174.394 454.727 259.557 469.557 295.995C469.557 295.995 475.489 329.467 506.842 332.856C506.842 332.856 525.908 334.974 536.5 301.079C536.5 301.079 552.177 244.728 555.143 192.19C555.143 192.191 558.109 111.689 552.177 88.385ZM535.229 203.631C535.229 203.631 528.45 269.727 523.789 280.319C523.789 280.319 519.129 307.859 504.299 309.553C504.299 309.553 489.47 314.214 480.996 264.218C480.996 264.218 470.404 194.309 474.217 132.449C478.03 70.59 479.301 63.387 479.301 63.387C479.301 63.387 483.962 31.61 494.131 29.491C494.131 29.491 508.112 24.831 512.774 36.27C512.774 36.27 532.687 69.318 533.111 96.011C533.111 96.012 540.314 131.178 535.229 203.631Z" fill="white"/>
  <path d="M586.998 339.693C584.039 339.693 581.59 339.222 580.915 339.079C575.68 338.084 572.378 336.346 570.533 333.612C569.906 332.684 569.48 331.657 569.27 330.609C568.05 326.629 568.663 321.406 569.124 318.7V302.246C567.623 294.58 568.394 274.805 568.698 268.35C568.698 268.35 567.853 215.107 567.853 215.071V26.526C567.853 26.338 567.861 26.151 567.876 25.963C569.228 9.74101 579.675 4.92103 585.682 4.52203C587.07 4.25903 588.448 4.12598 589.787 4.12598C604.256 4.12598 610.878 18.623 612.585 27.482L634.096 100.449C634.132 100.571 634.164 100.693 634.193 100.815L655.801 192.757L664.321 229.136L664.879 157.457L664.458 120.834L661.926 79.905C661.917 79.766 661.913 79.626 661.913 79.487V31.308C661.5 19.678 663.697 11.286 668.442 6.36102C672.386 2.26802 676.735 1.95099 677.975 1.95099C678.07 1.95099 678.201 1.95303 678.295 1.95703C678.465 1.96403 678.636 1.97799 678.805 1.99799C686.795 2.93799 690.779 6.805 692.715 9.883C696.432 15.794 695.164 22.597 694.468 25.192C693.28 42.256 693.266 72.402 693.266 72.709C693.266 84.499 694.865 156.449 694.955 160.512C697.474 194.949 693.428 266.245 693.255 269.268L690.291 327.271C690.272 327.649 690.221 328.026 690.139 328.396C688.546 335.562 685.325 339.195 680.562 339.195C679.857 339.195 679.157 339.096 678.482 338.908L669.657 339.615C669.477 339.63 669.296 339.636 669.116 339.636C668.67 339.636 668.225 339.592 667.786 339.505C658.055 337.559 654.634 323.327 653.579 316.899L639.26 262.994C639.237 262.909 639.216 262.823 639.197 262.736L628.202 213.681L599.631 101.263C599.642 125.667 599.702 200.638 600.052 228.97C600.47 262.823 602.57 325.224 602.591 325.851C602.602 326.177 602.589 326.503 602.553 326.828L602.13 330.641C601.985 331.942 601.467 333.173 600.639 334.185C598.582 336.698 594.547 339.694 586.998 339.694C586.999 339.693 586.999 339.693 586.998 339.693Z" fill="black"/>
  <path d="M575.904 319.299C575.904 319.299 574.633 326.078 575.904 329.044C575.904 329.044 575.481 331.162 582.259 332.434C582.259 332.434 591.58 334.552 595.394 329.892L595.818 326.079C595.818 326.079 593.699 263.372 593.276 229.053C592.853 194.734 592.853 93.471 592.853 93.471V54.915C592.853 54.915 593.276 48.983 595.819 58.728L634.798 212.105L645.814 261.253L660.22 315.486C660.22 315.486 662.762 331.586 669.117 332.858L679.709 332.01C679.709 332.01 681.828 334.552 683.522 326.926L686.488 268.88C686.488 268.88 690.725 195.157 688.183 160.838C688.183 160.838 686.488 84.997 686.488 72.71C686.488 72.71 686.488 41.357 687.759 23.985C687.759 23.985 692.42 10.427 678.014 8.73199C678.014 8.73199 667.846 8.30798 668.693 31.188V79.489L671.235 120.588L671.658 157.449L670.811 266.338C670.811 266.338 667.845 282.438 664.879 261.254L649.202 194.311L627.594 102.369L605.986 29.07C605.986 29.07 602.173 7.88502 586.496 11.275C586.496 11.275 575.903 11.275 574.632 26.528V104.488V215.072L575.48 268.458C575.48 268.458 574.209 295.15 575.903 301.506V319.299H575.904Z" fill="white"/>
  <path d="M762.753 340.06C749.966 340.06 723.324 332.331 713.637 303.129C711.766 298.953 698.399 266.915 699.199 206.188C699.126 202.018 698.039 134.129 703.493 92.173C703.701 90.455 708.96 48.634 728.607 21.647C730.674 17.895 741.2 1.71899 768.998 1.71899C770.978 1.71899 773.032 1.80299 775.102 1.96899C779.011 2.21899 791.643 3.538 797.089 10.185C798.511 11.691 802.62 16.65 802.556 23.588C802.524 27.043 801.399 32.12 796.41 37.224C795.439 38.724 793.45 40.565 789.536 40.565C787.655 40.565 783.844 40.23 772.512 37.331C772.357 37.291 772.202 37.246 772.049 37.195C772.046 37.195 770.092 36.604 767.417 36.604C761.624 36.604 757.292 39.153 754.174 44.396C754.107 44.509 754.037 44.62 753.963 44.729C753.922 44.79 749.076 52.081 744.052 64.979C739.433 76.837 733.708 96.014 732.664 120.033C732.66 120.117 732.655 120.201 732.648 120.284C732.602 120.855 728.073 177.808 731.374 216.183C731.389 216.359 731.397 216.537 731.399 216.713C731.517 232.076 734.213 275.601 745.123 292.285C745.41 292.723 745.581 293.023 745.756 293.506C746.186 294.497 749.433 301.197 758.589 301.197C762.63 301.197 767.337 299.948 772.582 297.485C772.845 297.361 773.115 297.256 773.39 297.167C774.876 295.593 781.947 285.797 785.636 239.341L786.054 197.943C785.784 193.491 788.322 185.293 800.022 182.24C800.557 182.1 801.105 182.027 801.658 182.02L839.678 181.598C839.801 181.594 839.979 181.589 840.206 181.589C842.394 181.589 849.853 182.065 853.999 188.188C857.225 192.952 857.296 199.28 854.21 206.993C854.14 207.167 854.064 207.339 853.98 207.507C852.639 210.189 848.099 215.16 832.759 218.318C832.358 218.401 831.949 218.447 831.539 218.456L818.772 218.734C818.859 236.073 818.106 281.661 808.398 303.725C807.332 306.322 794.02 337.201 763.376 340.029C763.169 340.051 762.961 340.06 762.753 340.06Z" fill="black"/>
  <path d="M791.988 14.663C791.988 14.663 801.309 23.56 790.717 33.306C790.717 33.306 792.412 35.425 774.193 30.764C774.193 30.764 757.669 25.256 748.347 40.932C748.347 40.932 728.01 71.015 725.891 119.739C725.891 119.739 721.23 177.361 724.62 216.765C724.62 216.765 725.044 273.964 739.449 295.996C739.449 295.996 747.499 316.757 775.463 303.622C775.463 303.622 787.326 304.046 792.411 239.644L792.835 197.698C792.835 197.698 791.987 191.343 801.732 188.801L839.864 188.377C839.864 188.377 854.694 187.53 847.914 204.478C847.914 204.478 845.795 208.715 831.39 211.681L811.9 212.105C811.9 212.105 813.595 275.235 802.155 301.081C802.155 301.081 790.291 330.74 762.751 333.282C762.751 333.282 730.55 333.282 719.958 300.657C719.958 300.657 705.128 269.304 705.976 206.174C705.976 206.174 704.705 135.417 710.213 93.048C710.213 93.048 715.297 51.102 734.364 25.257C734.364 25.257 743.261 6.19103 774.615 8.73303C774.616 8.73103 788.175 9.57902 791.988 14.663Z" fill="white"/>
  <path d="M1060.42 337.537C1054.45 337.537 1048.01 336.592 1041.29 334.729C1041.05 334.663 1040.81 334.583 1040.58 334.49C1039.04 333.873 1002.72 318.417 995.67 233.906C995.182 228.999 985.466 131.142 983.789 103.197C983.784 103.104 983.78 103.01 983.778 102.917L982.653 42.114C982.215 36.616 981.09 19.31 983.622 12.346C983.734 12.037 983.868 11.738 984.024 11.449C984.931 9.76304 989.888 1.35602 998.362 1.35602C1003.78 1.35602 1008.45 4.69302 1012.25 11.275C1012.81 12.247 1013.12 13.343 1013.15 14.465L1015.41 91.733C1015.73 96.515 1024.63 228.539 1033.83 263.184C1033.84 263.23 1033.85 263.276 1033.86 263.323C1039.37 285.88 1048.81 302.309 1054.17 303.501C1054.69 303.618 1054.99 303.695 1055.46 303.925C1055.75 304.035 1057.21 304.535 1059.27 304.535C1067.02 304.535 1073.9 297.787 1079.16 285.02C1082.77 275.554 1090.83 242.998 1095.64 187.146L1098.46 83.461C1098.47 82.255 1098.64 65.242 1099.6 48.248C1100.18 37.832 1100.95 29.419 1101.87 23.24C1103.26 13.895 1105.07 7.99799 1109.93 6.14099C1111.2 5.51899 1113.74 4.50702 1116.78 4.50702C1120.36 4.50702 1128.93 5.99802 1131.14 19.804C1131.2 20.201 1131.23 20.603 1131.22 21.006C1131.22 21.006 1130.09 79.836 1130.09 79.875C1130.05 80.799 1126.71 172.446 1127.26 187.277C1127.27 187.512 1127.27 187.747 1127.25 187.982C1127.02 191.449 1121.42 272.575 1105.97 302.933C1102.67 315.392 1089.32 337.537 1060.42 337.537Z" fill="black"/>
  <path d="M989.429 41.779C989.429 41.779 987.735 20.877 989.994 14.663C989.994 14.663 997.902 -0.0249901 1006.38 14.663L1008.64 92.058C1008.64 92.058 1017.67 228.77 1027.28 264.925C1027.28 264.925 1037.45 306.73 1052.7 310.119C1052.7 310.119 1072.47 319.158 1085.46 287.522C1085.46 287.522 1096.2 259.841 1102.41 187.53L1105.24 83.584C1105.24 83.584 1105.8 14.098 1112.58 12.403C1112.58 12.403 1122.18 6.754 1124.44 20.877L1123.31 79.629C1123.31 79.629 1119.92 172.277 1120.49 187.53C1120.49 187.53 1114.84 271.704 1099.59 300.515C1099.59 300.515 1089.98 341.189 1043.09 328.196C1043.09 328.196 1009.2 314.638 1002.42 233.289C1002.42 233.289 992.251 131.038 990.557 102.791L989.429 41.779Z" fill="white"/>
  <path d="M1196.56 339.127C1184.17 339.127 1173.19 335.858 1163.94 329.41C1152.09 321.158 1143.46 307.888 1138.27 289.971C1138.2 289.743 1138.15 289.512 1138.11 289.278C1137.99 288.62 1135.21 272.952 1133.65 254.917C1131.43 229.306 1132.8 212.775 1137.84 204.379C1138.12 203.903 1138.47 203.465 1138.86 203.073C1139.68 202.256 1144.05 198.179 1149.91 198.179C1155.2 198.179 1162.11 201.198 1164.99 215.576C1165.13 216.292 1165.16 217.028 1165.07 217.753C1162.72 236.487 1161.42 287.951 1183.26 300.897C1183.35 300.948 1183.44 301.001 1183.52 301.057C1183.54 301.071 1190.02 305.106 1199.33 305.106C1212.17 305.106 1224.22 297.737 1235.16 283.199C1236.18 281.434 1242.35 270.24 1244.72 255.973C1248.01 236.177 1242.69 219.778 1228.91 207.231C1228.73 207.07 1228.57 206.9 1228.41 206.721C1228.19 206.482 1206.56 182.395 1182.42 172.375C1180.56 171.68 1167.45 166.426 1155.58 152.961C1144.15 139.989 1131.65 116.6 1136.92 78.812C1137.08 77.264 1138.43 65.681 1143.32 51.625C1150.21 31.864 1160.97 16.471 1174.46 7.07599C1176.73 5.11399 1184.18 0 1199.97 0C1208.73 0 1218.73 1.601 1229.7 4.758C1229.84 4.799 1229.98 4.84303 1230.11 4.89203C1243.32 9.62503 1264.56 22.668 1260.43 41.533C1260.26 42.311 1259.96 43.053 1259.53 43.724C1258.89 44.729 1253.02 53.545 1243.95 53.547C1243.95 53.547 1243.95 53.547 1243.95 53.547C1241.04 53.547 1236.7 52.603 1232.48 48.11C1232.2 47.805 1231.94 47.475 1231.72 47.124C1231.43 46.7 1223.57 35.311 1204.17 35.311C1200.68 35.311 1196.98 35.684 1193.16 36.42C1190.49 37.721 1175.85 46.011 1169.47 73.802C1169.42 74.005 1169.36 74.207 1169.3 74.405C1168.78 76.008 1156.91 114.197 1189.92 136.414C1197.11 139.813 1266.51 173.976 1276.3 228.706C1276.31 228.762 1276.32 228.817 1276.33 228.873C1276.45 229.64 1279.15 247.894 1274.27 269.856C1267.7 299.42 1250.49 321.52 1224.5 333.765C1224.43 333.8 1224.35 333.834 1224.27 333.867C1223.77 334.08 1211.78 339.126 1196.56 339.127Z" fill="black"/>
  <path d="M1227.83 11.273C1227.83 11.273 1257.76 22.006 1253.81 40.084C1253.81 40.084 1245.9 52.512 1237.43 43.474C1237.43 43.474 1224.44 23.137 1191.11 29.915C1191.11 29.915 1170.77 37.824 1162.86 72.285C1162.86 72.285 1148.17 116.914 1186.59 142.336C1186.59 142.336 1260.03 176.231 1269.63 229.899C1269.63 229.899 1280.36 299.95 1221.61 327.631C1221.61 327.631 1163.42 352.487 1144.78 288.086C1144.78 288.086 1133.48 224.815 1143.65 207.867C1143.65 207.867 1154.39 197.133 1158.34 216.906C1158.34 216.906 1149.3 288.651 1179.81 306.729C1179.81 306.729 1210.88 327.067 1240.82 286.957C1240.82 286.957 1271.32 236.679 1233.48 202.219C1233.48 202.219 1210.88 176.797 1184.89 166.063C1184.89 166.063 1134.05 147.986 1143.65 79.63C1143.65 79.63 1148.17 33.306 1178.68 12.404C1178.68 12.403 1190.54 0.539012 1227.83 11.273Z" fill="white"/>
</svg>
